<svg id="svg" viewBox="0 0 400 420" xmlns="http://www.w3.org/2000/svg" xmlns:xlink="http://www.w3.org/1999/xlink" version="1.1" width="400" height="420" preserveAspectRatio="xMidYMid meet" buffered-rendering="static" style="background: rgb(255, 255, 255);"><g><path d="M 189.75 37.521522649979524 C 185.7625 37.25836010746826 181.375 37.409199368266094 180 37.85672100730804 C 178.625 38.30424264634999 175.25 39.80827387018302 172.5 41.19901261582589 C 169.75 42.58975136146876 165.25 44.947882020395866 162.5 46.43930296899724 C 159.75 47.930723917598606 156.15 50.43904468885662 154.5 52.01334912734836 C 152.85 53.587653565840114 149.8370149433589 56.366183646115175 147.80447765190863 58.1878604168485 C 145.77194036045836 60.00953718758183 142.73444036045836 62.7375 141.05447765190863 64.25 C 139.247987466786 65.87641491450529 137.55803315532367 68.73644967758274 136.91827611584506 71.25 C 136.32332797955985 73.5875 134.79973593622051 77.3 133.53251601953545 79.5 C 132.26529610285039 81.7 130.0464579424952 88.225 128.6017645520795 94 C 127.15707116166377 99.775 125.98976660977671 106.525 126.0077544367749 109 C 126.0257422637731 111.475 127.36592895732673 121.15 128.98594708911628 130.5 C 130.81930817112166 141.08131744353642 132.508036122987 148.06635434321737 133.45857444358813 149 C 134.46617111197776 149.98968998181545 135.30532246688773 150.15979332121032 135.92516727443814 149.5 C 136.51051351136434 148.8769286553424 136.51399234330557 140.77296256548084 135.9343966919737 128 C 135.4227737278206 116.725 135.0032341686094 106.2625 135.00208656039314 104.75 C 135.00084923272104 103.11925348074621 136.87902731560737 99.25274145635021 139.6167603735976 95.25 C 142.15597857907628 91.5375 145.01635706511564 86.925 145.9731570092406 85 C 146.92995695336555 83.075 149.46491478524663 80.02457438706817 151.606396635643 78.22127641570705 C 153.74787848603935 76.41797844434592 157.75 74.25277300461498 160.5 73.4097087718605 C 163.25 72.56664453910602 171.125 71.20285417904563 178 70.37906352728186 C 184.875 69.55527287551809 192.075 69.18734193433295 194 69.56143921353711 C 195.925 69.93553649274128 200.3125 71.5372524657335 203.75 73.12080804240871 C 208.3736026808029 75.25076638699515 210 76.52044714214307 210 78 C 210 79.1 210.86688389616495 80.7875 211.92640865814434 81.75 C 212.9859334201237 82.7125 214.3359334201237 84.7375 214.92640865814434 86.25 C 215.51688389616496 87.7625 216.91088975809362 89.3375 218.02419946243023 89.75 C 219.13750916676685 90.1625 220.48750916676687 91.7375 221.02419946243023 93.25 C 221.5608897580936 94.7625 223.56942962156904 97.0125 225.48762138126452 98.25 C 227.40581314096 99.4875 229.00084954894146 100.725 229.0321467323344 101 C 229.06344391572736 101.275 228.3168088931414 102.175 227.37295779325447 103 C 226.26624217174165 103.96735638477028 222.25560429487666 104.76158880098288 216.07843244218458 105.23667118173395 C 207.87185570899402 105.86783380844984 205.92710637997416 106.37559015682639 202.5 108.78187629924696 C 200.3 110.32656996392542 197.2625 112.13256793214514 195.75 112.79520511751299 C 194.2375 113.45784230288085 190.075 114 186.5 114 C 181.82015942754506 114 178.94990802257016 113.42367197166047 176.25 111.9418659005824 C 173.1689333859212 110.25086636431234 171.5188977006489 110.00420811720949 167 110.55911472370411 C 163.975 110.93057533110074 160.2625 111.85673567583865 158.75 112.61724882312171 C 157.2375 113.37776197040478 155.97996359201855 114.5625 155.95547464893014 115.25 C 155.9309857058417 115.9375 156.62602211382313 117.175 157.5 118 C 158.37397788617687 118.825 159.0690142941583 120.0625 159.04452535106986 120.75 C 159.02003640798145 121.4375 158.325 122.225 157.5 122.5 C 156.675 122.775 156.225 123.45 156.5 124 C 156.775 124.55 158.4625 124.93757003224835 160.25 124.86126673832965 C 162.0375 124.78496344441096 164.4 125.17823877155475 165.5 125.73521190976028 L 167.5 126.74789034286125 L 164.75 127.37394517143062 C 163.2375 127.71827532714379 159.525 129.35 156.5 131 C 153.475 132.65 151 134.45 151 135 C 151 135.55 151.5625 136.02003640798145 152.25 136.0445253510699 C 152.9375 136.06901429415834 154.175 135.3739778861769 155 134.5 C 155.825 133.62602211382313 156.8375 132.9309857058417 157.25 132.95547464893014 C 157.6625 132.97996359201855 159.11443671830347 134.2375 160.47652604067434 135.75 L 162.9530520813487 138.5 L 161.47652604067434 140.75 C 160.66443671830345 141.9875 160.25943059369487 143.3375 160.57651243043304 143.75 C 160.8935942671712 144.1625 162.69359426717122 144.3875 164.57651243043304 144.25 C 166.45943059369486 144.1125 169.2375 143.3798916007448 170.75 142.62198133498842 C 172.2625 141.86407106923204 175.28104227029982 139.05157106923204 177.4578717117774 136.37198133498842 C 180.66556384742466 132.42344097003442 181.44086815453537 130.6470648018883 181.54829896782462 127 C 181.62120451717306 124.525 181.97766224687322 121.7125 182.34042725604724 120.75 C 182.70319226522125 119.7875 183.9 118.775 185 118.5 C 186.1 118.225 188.6875 118.9035341488665 190.75 120.00785366414776 C 193.5694430376952 121.51746140657235 195.24444556984383 123.54685869382223 197.5 128.18600947347946 C 199.15 131.57967565333064 201.97867449372941 135.96364150446414 203.78594331939868 137.9281558093317 C 205.59321214506795 139.89267011419926 207.05571214506796 142.2875 207.03594331939868 143.25 C 207.0161744937294 144.2125 207.675 145.675 208.5 146.5 C 209.325 147.325 210.45 148 211 148 C 211.55 148 212.3375 146.8231954146184 212.75 145.38487869915198 L 213.5 142.76975739830397 L 217.25 143.38487869915198 C 219.3125 143.7231954146184 221.3375 144.0532894736842 221.75 144.11842105263156 L 222.5 144.2368421052631 L 227.75 144.11842105263156 L 233 144 L 233 141.5 C 233 139.3095238095238 233.43333333333334 139 236.5 139 C 238.425 139 241.125 139.45 242.5 140 C 244.33350409608107 140.73340163843244 245.16560071034644 140.66675204804054 245.6211617707353 139.75 C 245.96280074463974 139.0625 245.7587861459675 137.6 245.1677959959081 136.5 C 244.57680584584872 135.4 242.70862250960056 131.35 241.0162774709122 127.5 C 239.32393243222387 123.65 238.1779470308961 119.9375 238.4696432457394 119.25 C 238.76133946058275 118.5625 239.994052484402 117.8875 241.20900552089333 117.75 C 242.5701056868059 117.59596007648703 243.6256665281632 116.6227824750694 243.95900552089333 115.21462894506661 L 244.5 112.92925789013321 L 246.25 114.96462894506661 C 247.39065404463364 116.29128850286091 248.218702447606 119.5244332436606 248.62809850453573 124.25 C 248.97355268203034 128.2375 249.76105268203037 132.13218363140913 250.37809850453573 132.90485251424252 C 251.09348811699883 133.80066814493287 251.5 139.67261753749403 251.5 149.11040290595395 L 251.5 163.91110078342288 L 249.5 165.42374701984113 C 248.4 166.25570244987114 246.2625 166.950704773601 244.75 166.96819662812968 C 243.2375 166.98568848265836 241.6625 166.485874626704 241.25 165.8574991704533 C 240.75686272630705 165.1062861780872 238.95882364215768 164.94471219635483 236 165.3857277770655 L 231.5 166.0564572132244 L 223.25 157.5282286066122 C 218.7125 152.83770287297548 214.4375 148.98958333333334 213.75 148.97685185185185 C 212.87425684055518 148.9606343859362 212.7173463932822 149.78399943515757 213.22592658880933 151.72685185185185 C 213.62518621265448 153.25208333333333 214.20951329104207 155.4 214.52443120744843 156.5 L 215.09700923727817 158.5 L 204.29850461863907 158.57161119547348 L 193.5 158.64322239094696 L 193.75 161.82161119547348 C 193.95840457340273 164.4711742471349 193.50085488083275 165.24957255958364 191 166.5 C 189.35 167.325 187.97996359201855 168.5625 187.95547464893014 169.25 C 187.9309857058417 169.9375 188.4934857058417 171.04385296397498 189.20547464893014 171.7085621421666 C 189.91746359201855 172.37327132035824 192.6353216826201 173.27327132035825 195.2451592947113 173.7085621421666 C 199.03228341795108 174.34021077971323 199.73892420530834 174.75152518925458 198.7451592947113 175.74580717408546 C 198.0603216826201 176.43100111983244 193 177.67141120632226 187.5 178.50227403295173 C 182 179.33313685958117 175.5875 180.01002363124272 173.25 180.00646685886625 C 170.79779023391643 180.00273554252092 168.3654857997942 180.6345142002058 167.5 181.5 C 166.59031168559372 182.40968831440628 166.29515584279685 183.6337849121915 166.75 184.6104667948951 C 167.3536299193118 185.90663471683757 168.37822048412914 186.0844181390498 172 185.521428693886 C 174.475 185.1367010011387 178.20966436530057 183.84949094343594 180.2992541451124 182.66096189899093 C 183.71361523547654 180.71892171324396 184.42276794817514 180.63553101592782 187.2992541451124 181.83781778523343 C 189.0596643653006 182.5736175671118 192.075 183.5753820816745 194 184.06396115092832 C 195.925 184.55254022018215 200.2 184.97920553039967 203.5 185.01210628474502 L 209.5 185.0719258381002 L 206.5 187.5777275154241 C 203.93211029986895 189.72260162134782 202.85183455019654 189.99515864254553 199 189.47000146455497 C 196.525 189.13256121404876 193.4875 188.66376714568045 192.25 188.42823686818093 C 190.52392104393968 188.0997165809026 190 188.46570759461306 190 190 C 190 191.1 189.2125 193.3302077015259 188.25 194.956017114502 C 187.08603807709653 196.92212646577704 186.834878901198 198.2420678780386 187.5 198.89756555944587 C 188.05 199.43960779118888 193.225 200.37561460313592 199 200.97758069710596 L 209.5 202.07206450432426 L 212.2093593203874 205.28603225216213 C 213.69950694660045 207.05371451347295 214.93700694660046 209.0625 214.9593593203874 209.75 C 214.98171169417432 210.4375 213.87897120108903 211.5625 212.50882489130896 212.25 C 210.40955943787066 213.3033510099885 209.42631448781307 213.20894165802446 206.25882489130896 211.64988662058155 C 203.65922565879947 210.3703502068709 200.9234722923533 209.907748585758 197.38806036654006 210.14988662058155 C 193.08970707906545 210.4442780068886 191.29922302631456 211.25598215560592 186.13806036654006 215.25 L 180 220 L 174.5 220 C 171.119765953114 220 167.5547050319677 219.27681241159212 165.25 218.12359863106576 C 163.1875 217.0915778781519 160.0375 215.06657787815192 158.25 213.62359863106576 C 156.4625 212.18061938397958 154.9808981790194 210.2125 154.95755150893194 209.25 C 154.93420483884452 208.2875 155.77512438257838 206.375 156.82626160611832 205 C 157.87739882965826 203.625 158.57150065063885 201.7125 158.36871009718635 200.75 C 158.04096778857627 199.19444444444446 157.83333333333334 199.16666666666666 156.5 200.5 C 155.675 201.325 153.65 202 152 202 C 149.7526704673313 202 148.83309210564025 201.43549714950151 148.33473717275683 199.75 C 147.9688426177731 198.5125 145.97258657546428 194.575 143.89861263429276 191 L 140.1277509230718 184.5 L 139.5466884029775 187.5 C 139.22710401692564 189.15 138.3084491326527 192.525 137.5052331045932 195 C 136.7020170765337 197.475 136.03475125288497 200.2875 136.0224201631516 201.25 C 136.00918472142413 202.2830889595429 137.480190743391 203.7169110404571 139.6131872083916 204.75 C 142.39460325298774 206.09714250807116 143.7182778693254 207.69469280660803 145.3631872083916 211.6897071630811 C 146.5384342437762 214.54404610277567 148.34009727602418 217.46904610277568 149.36688283560932 218.1897071630811 C 150.93369887378236 219.28939472377246 151.0372324439635 219.8214629131649 150.01102289619556 221.5 C 148.95156646299648 223.23291792000828 149.20303988756328 223.93400837998655 151.89414006058624 226.75 C 153.6023630272638 228.5375 155.675 230 156.5 230 C 157.325 230 158.29698990798104 231.2375 158.65997757329123 232.75 C 159.02296523860142 234.2625 160.293340900639 237.075 161.48303460004146 239 C 162.67272829944392 240.925 163.88563470688 243.175 164.17838217212164 244 C 164.47112963736328 244.825 166.4632539753257 245.8325474512535 168.6053251453714 246.2389943361189 C 170.74739631541712 246.6454412209843 173.7375 246.98294122098432 175.25 246.9889943361189 C 177.2799546889455 246.9971183357554 178.51026795324785 247.85096264033712 179.9488174561912 250.25 C 181.02066705709635 252.0375 183.27066705709635 254.2875 184.9488174561912 255.25 C 186.62696785528604 256.2125 188.675 258.35 189.5 260 C 190.325 261.65 190.8875 264.86666988995086 190.75 267.14815531100186 C 190.5899571203552 269.80368619574847 189.871534654627 271.69278572320746 188.75343079321695 272.39815531100186 C 187.43700493787924 273.22863877053527 186.4518888605436 273.1487734223294 184.75343079321695 272.07386723960275 L 182.5 270.6477344792055 L 183.23712040118642 278.07386723960275 C 183.7731426573201 283.47403311504166 183.63673472129705 285.853167062538 182.73712040118642 286.79452535106986 C 181.74274880569288 287.83503784889604 181.89244168224872 288.0795205701739 183.5 288.04048230384285 C 184.62634835116697 288.0131298361726 185.93682582441653 288.9570217410842 186.5 290.20127924429937 C 187.17927927492767 291.70205532965804 189.26396398789785 292.93068153394483 193 294.03210808771024 C 196.025 294.92391301527186 199.4 296.1434358941343 200.5 296.74215892962684 C 201.97175100803767 297.5432236851008 204.08474697588701 297.47809712858634 208.5 296.4955837065579 C 213.01705082084348 295.49041751670984 215.1178954913152 295.4355455171395 217 296.27357205433844 C 218.375 296.8858050537981 220.30216763099574 298.08721029589634 221.28259473554613 298.9433614812234 C 222.26302184009648 299.7995126665505 223.05052184009648 300.8375 223.03259473554613 301.25 C 223.01466763099575 301.6625 222.4375 302.01422055922933 221.75 302.0316012427319 C 221.0625 302.04898192623443 219.2625 303.17398192623443 217.75 304.5316012427319 C 216.2375 305.88922055922933 215 307.675 215 308.5 C 215 309.5 216 310 218 310 C 219.65 310 221 310.45 221 311 C 221 311.55 220.55 312.9 220 314 C 219.33333333333334 315.3333333333333 218 316 216 316 C 213.88683756770794 316 212.4826780855037 316.7671927929691 211.25 318.595264863278 C 210.2875 320.02266053808086 208.61918758048054 322.16016053808085 207.5426390677345 323.345264863278 L 205.58527813546903 325.5 L 204.32665817451254 320.5 C 203.63441719598652 317.75 202.26522961550597 314.9298575436471 201.28401910677803 314.2330167636602 C 200.30280859805012 313.53617598367333 198.7125 312.97367598367333 197.75 312.9830167636602 C 196.78056349080973 312.9924248604328 194.88490929884324 311.2158548781492 193.5 309 C 192.125 306.8 187.7375 301.6850552102459 183.75 297.63345602276854 C 179.7625 293.58185683529126 175.9375 289.08185683529126 175.25 287.63345602276854 C 174.5625 286.1850552102459 174.00486328238603 284.8875 174.01080729419118 284.75 C 174.01675130599634 284.6125 175.47925130599634 284.6699399579324 177.26080729419118 284.8776443509609 L 180.5 285.2552887019218 L 178 282.49876572977513 C 176.625 280.98267809509446 174.0375 279.12523813716206 172.25 278.3711213788142 C 170.29678972057707 277.547094187603 167.7920336583891 275.1046919468489 165.97260816619647 272.25 C 164.30754265760453 269.6375 162.51657365746865 265.925 161.9926770547834 264 C 161.46878045209814 262.075 161.3157124065114 258.925 161.6525258423684 257 C 161.98933927822537 255.075 161.86780827836125 252.69429228686914 161.38245695378146 251.70953841526472 C 160.64311176497526 250.20944353500593 160.05264010404653 250.77705329236238 157.74148569409832 255.20953841526472 L 154.98297138819663 260.5 L 155.92234002025756 265.5 C 156.43899276789108 268.25 157.21361542565344 271.4 157.6437237041739 272.5 C 158.07383198269437 273.6 160.35404244066575 277.425 162.71085805522137 281 C 165.06767366977698 284.575 167.00438244967063 288.175 167.01465534387393 289 C 167.0249282380772 289.825 166.56390264128768 290.95 165.99015401767502 291.5 C 165.3202796035407 292.1421469483517 165.2701335476733 293.39463262912074 165.85002371660192 295 C 166.34670067462443 296.375 166.61190293975577 300.2 166.4393620835605 303.5 C 166.24871192247244 307.1463568424542 165.6106642245758 309.7768765594232 164.81282571796635 310.2058246494221 C 163.91384604736538 310.68915004605003 162.51955806509022 309.1129848258621 160.38978692604041 305.2058246494221 C 158.67916973536265 302.0676210922399 155.65759000225708 297.7 153.675165296917 295.5 C 151.69274059157686 293.3 150.0623364748589 291.05 150.0520450375438 290.5 C 150.04175360022865 289.95 149.4633333333342 288.91509688973554 148.76666666666722 288.2002153105234 C 147.95568426762483 287.3680291218051 147.47088435501948 283.7705217458212 147.41906717085587 278.2002153105234 C 147.3745541148266 273.41509688973554 147.0370541148266 268.9375 146.66906717085587 268.25 C 146.1478956272315 267.27630937832873 144.90547743905486 267.38683312966026 141.04847352827244 268.75 C 137.11082430524988 270.1416690498648 136.34297226924585 270.75985406171026 137.29847352827244 271.76906316024713 C 137.9593130877226 272.46704789838304 139.4 273.14204789838305 140.5 273.26906316024713 L 142.5 273.5 L 142.5 281.36972179232737 L 142.5 289.23944358465474 L 145.6433766307231 291.36972179232737 C 147.37223377762083 292.5413748065473 149.17223377762082 293.8900300886918 149.6433766307231 294.36673353042613 C 150.1145194838254 294.8434369721605 150.8768116312072 297.0934369721605 151.33735918046045 299.36673353042613 C 151.7979067297137 301.6400300886918 152.5295586846018 306.425 152.96325241354515 310 C 153.39694614248847 313.575 154.28575735491916 319.425 154.9383884411689 323 C 155.5910195274187 326.575 156.80815024826188 333.55 157.64312337637602 338.5 C 158.47809650449014 343.45 159.77209913151955 350.875 160.51868476977467 355 C 161.2652704080298 359.125 162.12898773229853 365.9875 162.4380566014829 370.25 C 162.90733189681632 376.72197484378535 162.75264029234555 378 161.5 378 C 160.47895798218497 378 159.99284112259772 376.96225770526587 159.97757983684824 374.75 C 159.96524874711477 372.9625 159.2515576420463 369.25 158.39159960336275 366.5 C 157.53164156467923 363.75 156.14941299961905 359.475 155.31998056989568 357 C 154.4905481401723 354.525 153.60484380475634 351.15 153.35174871341576 349.5 C 153.09865362207518 347.85 152.69097126055365 345.4875 152.4457879100346 344.25 C 152.0999816614218 342.50463176128204 151.66357882581195 342.22428078279205 150.5 343 C 149.4491973553487 343.7005350964342 148.8246627517277 343.62566887054277 148.41449817262549 342.75 C 148.09247216756947 342.0625 148.3174721675695 340.4875 148.91449817262549 339.25 C 149.51152417768145 338.0125 150 336.1 150 335 C 150 333.9 148.875 330.75 147.5 328 C 146.125 325.25 145 322.1 145 321 C 145 319.9 144.1 318.1 143 317 C 141.9 315.9 140.99310925146733 313.9875 140.98468722548296 312.75 C 140.97626519949856 311.5125 140.56169307428593 309.825 140.06341583612152 309 L 139.15745722127716 307.5 L 137.4640371582243 309 C 135.94642404798887 310.3442734706056 135.5971415095654 310.29236462747406 134.09965339090775 308.5 C 133.18062335356268 307.4 131.65092533066226 303.125 130.70032445112898 299 C 129.7497235715957 294.875 128.9782683921008 289.5875 128.98597960780697 287.25 L 129 283 L 126.25 282.4171642492495 C 124.7375 282.0966045863367 123.275 282.13409441488574 123 282.50047497935844 C 122.725 282.86685554383115 122.5 288.1916316316689 122.5 294.33331073010896 C 122.5 303.08330071781745 123.13717271306254 308.3134651111931 125.4441435889355 318.5 L 128.388287177871 331.5 L 128.32552358008462 349.5 C 128.29100360130212 359.4 127.52217717804515 374.025 126.61702041729141 382 C 125.71186365653766 389.975 124.86524266052056 399.425 124.7356404261423 403 L 124.5 409.5 L 160.75 409.75 L 197 410 L 197 406.5 L 197 403 L 204 403 L 211 403 L 211 406.5 L 211 410 L 214.5 410 C 217.10054017347193 410 218.19274139139887 409.47970343165116 218.75 407.97540931177525 C 219.1625 406.8618844332517 220.0625 405.7368844332517 220.75 405.47540931177525 C 221.4375 405.21393419029886 222.45 406.125 223 407.5 L 224 410 L 295 410 L 366 410 L 366 406.5 C 366 403.6666666666667 366.3809523809524 403 368 403 C 369.4469954758141 403 369.8483763557623 402.5161210413373 369.451636875988 401.25 C 369.15003715778136 400.2875 368.4038804805009 395.45 367.79351092647573 390.5 C 367.02701750729517 384.2838602860789 366.9734754508809 376.8602328565352 367.62041369521813 366.5 C 368.1355797720515 358.25 368.19738496898765 349.025 367.7577585772983 346 C 367.24512721736664 342.4726643051737 364.66695207664014 335.8373389150441 360.5695293196359 327.5 C 357.0556296196108 320.35 352.33010205139783 312.025 350.06835694582935 309 C 347.8066118402608 305.975 343.37847216608026 301.8083561468514 340.22804655876143 299.74079143744746 C 337.07762095144267 297.6732267280436 332.025 294.82360561415464 329 293.40830007324973 C 325.975 291.9929945323449 322.6 290.456514895179 321.5 289.9939008795478 C 320.4 289.5312868639166 316.8 288.371549536622 313.5 287.4167068188932 C 310.2 286.46186410116445 306.375 285.1260088128942 305 284.44813951162604 C 303.625 283.77027021035786 300.475 282.44670450780484 298 281.5068823948415 C 295.525 280.5670602818782 292.0375 279.16853906046293 290.25 278.3990574583632 C 288.4625 277.62957585626344 286.325 277 285.5 277 C 284.675 277 283.2125 276.6171858729974 282.25 276.14930193999425 C 281.2875 275.68141800699107 277.575 273.8179665597655 274 272.0082987239374 C 270.425 270.1986308881093 266.0375 267.88144501511186 264.25 266.85899678394316 C 261.9398158515136 265.5375737370654 259.9807830711347 262.9034877158544 257.47542120780616 257.75 C 255.53690287209957 253.7625 252.94940287209954 249.57939590288743 251.72542120780616 248.4542131175276 C 250.5014395435128 247.32903033216775 248.92385206514314 246.20403033216775 248.2196712558736 245.9542131175276 C 247.31016420119195 245.6315537719373 246.9126598405703 242.74851444139935 246.84721577846736 236 C 246.79654607516343 230.775 247.14814863729123 224.25 247.62855480541805 221.5 C 248.4141225968596 217.00315635020286 248.83416720702562 216.39936872995943 251.8026510877828 215.5 C 254.09707379105916 214.80485321277564 255.27436702669894 213.73786696806093 255.6644874939691 212 C 255.9731507301977 210.625 255.67898785382624 208.375 255.01079221314365 207 C 254.25698601625123 205.44883226165874 253.8552425816026 200.51490450103333 253.9522715164867 194 L 254.10865198470714 183.5 L 257.39514716109784 180.5 C 259.3508829044294 178.71475252051385 261.57631522375203 175.07049495897226 262.8911612423393 171.5 C 264.87254428340884 166.1195082466518 265.0363857284318 164.31260919391738 264.4779822014641 154 C 264.0893836348856 146.8233527245028 263.33837740669895 141.74811256965168 262.4803261751125 140.5 C 261.38057531733733 138.9003136193433 261.2146112771417 134.59694221140262 261.6511560835835 119 L 262.19694407267997 99.5 L 258.59847203634 89.75 C 256.619312416353 84.3875 255 78.65 255 77 C 255 74.92631223384902 253.9964950799969 73.03022144765762 251.75 70.85922785998602 C 249.9625 69.13180318297835 246.925 66.6518399685671 245 65.34819849462772 C 243.075 64.04455702068833 238.74360402020707 61.07040448369462 235.37467560046014 58.73897063464169 C 232.00574718071323 56.40753678558876 225.93074718071324 52.00812640370965 221.87467560046014 48.962503119354785 C 217.81860402020706 45.91687983499992 212.7 42.71136986546845 210.5 41.839147631507075 C 208.3 40.96692539754571 204.3625 39.74629899383606 201.75 39.126644512152296 C 199.1375 38.50699003046853 193.7375 37.784685192490784 189.75 37.521522649979524 Z " class="odd" fill="#143823"></path><path d="M 150 61 C 151.1929590025131 61 152.04781016527042 61.70616087280102 152.11848261840305 62.75 C 152.18364805852474 63.7125 152.1260875841047 65.175 151.9905704530252 66 C 151.85505332194575 66.825 151.12673614366435 68.0625 150.37208783462216 68.75 C 149.61743952557998 69.4375 148.775 70 148.5 70 C 148.225 70 148 69.1 148 68 C 148 66.9 148.7875 65.74286094205081 149.75 65.42857987122403 L 151.5 64.85715974244805 L 149.7889547451589 63.678579871224024 C 148.8478798549963 63.03036094205081 148.0603798549963 62.1625 148.0389547451589 61.75 C 148.0175296353215 61.3375 148.9 61 150 61 Z " class="even" fill="#ffffff"></path><path d="M 33.74876297182869 116.5 C 33.55878854887207 115.95 29.086385761668673 119.775 23.810090111376685 125 C 18.533794461084696 130.225 12.356615683574402 137.425 10.08302616135381 141 C 7.809436639133219 144.575 5.960650948283824 147.725 5.974613515021822 148 C 5.98857608175982 148.275 12.3 148.5 20 148.5 L 34 148.5 L 34 136.25 C 34 129.5125 33.6625 124.01842777413809 33.25 124.04095060919576 C 32.8375 124.06347344425342 30.855533237742357 125.30097344425342 28.845629417205235 126.79095060919576 C 26.835725596668112 128.2809277741381 23.348225596668115 130.9625 21.095629417205235 132.75 C 18.843033237742354 134.5375 16.989021912143922 135.6625 16.975604249208715 135.25 C 16.962186586273504 134.8375 20.808375064326302 130.675 25.522689755992708 126 C 30.23700444765911 121.325 33.938737394785306 117.05 33.74876297182869 116.5 Z " class="odd" fill="#143823"></path><path d="M 225.5 123.05116959064327 C 226.6 122.99247076023391 227.275 123.21676587301587 227 123.54960317460316 C 226.725 123.88244047619047 225.825 123.93046679197994 225 123.656328320802 C 223.95523061648163 123.30916288864292 224.10697415530885 123.12550503410999 225.5 123.05116959064327 Z " class="even" fill="#ffffff"></path><path d="M 153.5 126.05116959064327 C 152.10697415530885 126.12550503410999 151.95523061648163 126.30916288864292 153 126.656328320802 C 153.825 126.93046679197994 154.725 126.88244047619047 155 126.54960317460316 C 155.275 126.21676587301587 154.6 125.99247076023391 153.5 126.05116959064327 Z " class="odd" fill="#143823"></path><path d="M 171.5 131 C 171.775 131 171.99310925146733 132.0125 171.98468722548296 133.25 C 171.97249549120093 135.0414063910465 171.7821247248568 135.19427092736433 171.050670231108 134 C 170.54538291018616 133.175 170.32727365871884 132.1625 170.56598300562507 131.75 C 170.80469235253128 131.3375 171.225 131 171.5 131 Z " class="even" fill="#ffffff"></path><path d="M 16.75 135.96740526445387 C 16.8875 135.98533236900425 17.01466763099575 136.1125 17.032594735546112 136.25 C 17.050521840096472 136.3875 16.038021840096473 137.4 14.78259473554611 138.5 L 12.5 140.5 L 14.5 138.21740526445387 C 15.600000000000001 136.96197815990354 16.6125 135.94947815990352 16.75 135.96740526445387 Z " class="even" fill="#ffffff"></path><path d="M 259 146.5 C 259.55 146.775 260 148.8 260 151 C 260 153.33333333333334 259.5833333333333 154.79166666666666 259 154.5 C 258.45 154.225 258 152.2 258 150 C 258 147.66666666666666 258.4166666666667 146.20833333333334 259 146.5 Z " class="even" fill="#ffffff"></path><path d="M 131.75 153.2581894068794 C 130.7875 153.11618523309573 129.80469235253128 153.3375 129.56598300562507 153.75 C 129.32727365871884 154.1625 129.54538291018616 155.175 130.050670231108 156 C 130.55595755202984 156.825 130.97626519949856 158.9625 130.98468722548296 160.75 C 130.99310925146733 162.5375 131.45 164.225 132 164.5 C 132.55 164.775 133.25395191906435 163.9875 133.56433759792077 162.75 C 133.87472327677722 161.5125 133.9872232767772 158.92868523309573 133.81433759792077 157.0081894068794 C 133.59730078666703 154.59724193624322 132.95830095478996 153.43645826793605 131.75 153.2581894068794 Z " class="odd" fill="#143823"></path><path d="M 172 154 C 171.45 154 170.2482234114472 155.4625 169.32938535877162 157.25 C 168.41054730609602 159.0375 165.80276041948386 162.525 163.53430338852237 165 C 161.2658463575609 167.475 158.95297003490515 170.625 158.39457822706515 172 C 157.83618641922516 173.375 157.5189733058373 175.2875 157.6896601973144 176.25 C 157.86034708879149 177.2125 158.675 178.225 159.5 178.5 C 160.40268390022993 178.80089463340997 161.40006342466148 178.10402585034487 162.00465254029353 176.75 C 162.55721143745495 175.5125 164.14461721063208 173.825 165.53222092513158 173 C 166.91982463963112 172.175 168.04273099649902 170.7125 168.02756838483808 169.75 C 168.01240577317714 168.7875 168.3375 167.99692512950267 168.75 167.99316695445037 C 169.1625 167.9894087793981 170.52895986089553 166.5269087793981 171.78657746865673 164.74316695445037 C 173.54323760365907 162.2516082042512 173.94880240371805 160.63093257130214 173.53657746865673 157.75 C 173.24145986089553 155.6875 172.55 154 172 154 Z " class="odd" fill="#143823"></path><path d="M 183.25 159.01531277451704 C 182.2875 159.02373480050144 180.92579142514558 159.36123480050145 180.22398094476796 159.76531277451704 C 179.5221704643903 160.16939074853266 179.17316773526767 161.175 179.4484193244954 162 C 179.72367091372314 162.825 181.08537948857756 163.8375 182.47443837972747 164.25 C 183.86349727087736 164.6625 185.675 164.775 186.5 164.5 C 187.325 164.225 188 163.55 188 163 C 188 162.45 187.325 161.325 186.5 160.5 C 185.675 159.675 184.2125 159.00689074853267 183.25 159.01531277451704 Z " class="odd" fill="#143823"></path><path d="M 216 158.98666442264226 C 216.275 158.96571337448646 217.4294219002261 159.97264299605547 218.56538200050244 161.22428580390675 C 219.7013421007788 162.47592861175804 221.3888421007788 164.7375 222.31538200050244 166.25 C 223.2419219002261 167.7625 224 169.675 224 170.5 C 224 171.325 223.325 172 222.5 172 C 221.675 172 220.775 171.55 220.5 171 C 220.225 170.45 219.2125 170.25220214177818 218.25 170.5604492039515 C 217.2875 170.8686962661248 215.2625 170.6436962661248 213.75 170.0604492039515 C 212.2375 169.47720214177818 211 168.325 211 167.5 C 211 166.675 212.0125 164.43057037843099 213.25 162.5123786187355 C 214.4875 160.59418685904004 215.725 159.00761547079807 216 158.98666442264226 Z " class="even" fill="#ffffff"></path><path d="M 259.5 167 C 259.775 167 260.0075 168.0125 260.01666666666665 169.25 C 260.0284559441013 170.84155245367708 259.704838750342 171.2073566460787 258.9108250699825 170.5 C 258.29344552513953 169.95 258.0609455251395 168.9375 258.3941584033158 168.25 C 258.72737128149214 167.5625 259.225 167 259.5 167 Z " class="even" fill="#ffffff"></path><path d="M 137.64177506673855 168.5 C 137.3756408852955 167.95 137.17456902876648 168.85 137.19494871889628 170.5 C 137.21844131794055 172.40203031430755 137.3955366291836 172.76802020953838 137.6788290487927 171.5 C 137.92458354010594 170.4 137.90790924818157 169.05 137.64177506673855 168.5 Z " class="odd" fill="#143823"></path><path d="M 219.5 188 L 223 188 L 222.99700650751134 191.75 L 222.99401301502266 195.5 L 216.24700650751134 195.13933608782565 C 211.7950440804894 194.90135466836273 208.89495146082447 194.22103990123324 207.72126883492928 193.13933608782565 C 206.35109517112846 191.87653978798815 206.2362499631249 191.3312493855437 207.22126883492928 190.76531277451704 C 207.92457097571815 190.36123480050145 210.1875 190.02373480050144 212.25 190.01531277451704 C 214.3125 190.00689074853267 216 189.55 216 189 C 216 188.45 217.575 188 219.5 188 Z " class="even" fill="#ffffff"></path><path d="M 33.75 198.99226797178994 C 33.6125 198.98801535627442 32.4875 199.6630153562744 31.25 200.49226797178994 C 30.0125 201.32152058730549 28.964473684210525 202.7875 28.921052631578945 203.75 C 28.87763157894737 204.7125 28.652631578947368 204.9375 28.421052631578945 204.25 L 28 203 L 26.45547464893012 204.25 C 25.605985705841686 204.9375 24.930985705841685 205.8375 24.95547464893012 206.25 C 24.979963592018553 206.6625 27.025 207 29.5 207 L 34 207 L 34 203 C 34 200.8 33.8875 198.99652058730547 33.75 198.99226797178994 Z " class="odd" fill="#143823"></path><path d="M 251 210.5 C 251.55 210.775 251.775 211.45 251.5 212 C 251.225 212.55 250.55 212.775 250 212.5 C 249.45 212.225 249.225 211.55 249.5 211 C 249.775 210.45 250.45 210.225 251 210.5 Z " class="even" fill="#ffffff"></path><path d="M 154.5 222 C 155.325 222 155.85 222.5625 155.66666666666669 223.25 C 155.48333333333335 223.9375 154.92083333333335 224.3875 154.41666666666669 224.25 C 153.9125 224.1125 153.3875 223.55 153.25 223 C 153.1125 222.45 153.675 222 154.5 222 Z " class="even" fill="#ffffff"></path><path d="M 110.25 276.0996800253506 C 109.8375 276.15450403929344 108.375 276.55964802788566 107 277 C 105.625 277.44035197211434 100.7875 277.84549596070656 96.25 277.9003199746494 C 89.8684585188321 277.9774244857547 87.88676008976775 278.33971973069674 87.5 279.5 C 87.225 280.325 86.325 281 85.5 281 C 84.675 281 83.7647430929659 281.7875 83.47720687325757 282.75 C 83.18967065354924 283.7125 83.42217065354924 284.95 83.99387353992424 285.5 C 84.56557642629924 286.05 85.0282784213176 287.175 85.02210019552058 288 C 85.01592196972355 288.825 82.98342196972354 291.8625 80.5054335288539 294.75 L 76 300 L 76.94046373381379 306.25 C 77.45771878741137 309.6875 78.01651359805815 319.25 78.18222997969553 327.5 C 78.43862880739499 340.264521573667 78.26121174111015 342.5 76.99176624588176 342.5 C 75.8643676874069 342.5 75.18580258404025 340.17960091608086 74.2136370323952 333 C 73.50613740021255 327.775 72.60613740021256 320.32062537567964 72.2136370323952 316.4347230570658 C 71.58896697502452 310.2502528671299 71.09483230871689 308.97241630231395 68.25 306.1847230570658 C 66.4625 304.4331253756796 64.73718494870214 301.9875 64.4159665526714 300.75 C 64.09474815664068 299.5125 63.99629186019919 297.6 64.19717478280144 296.5 C 64.42600302095657 295.24697630485474 65.29773686090299 294.5428832269394 66.53120823013003 294.61481817203764 C 67.61404370355851 294.6779681666584 69.2875 295.01546816665837 70.25 295.36481817203764 C 71.48036825404317 295.81139391870624 72.26585597854115 295.33190204091267 72.89534168392723 293.75 C 73.38777961008721 292.5125 75.52527961008721 289.93655028881903 77.64534168392723 288.02566730848673 L 81.5 284.5513346169734 L 79.25 284.27566730848673 C 78.0125 284.12405028881903 74.75 285.125 72 286.5 C 69.25 287.875 65.0875 290.3884161408759 62.75 292.08536920194643 C 60.4125 293.78232226301697 57.9375 296.48232226301695 57.25 298.08536920194643 C 56.34062362203148 300.205766320546 56.20437417321889 303.8628607889501 56.75 311.5059536530234 C 57.33104740184391 319.6452297516658 57.218412336406516 322.010566125851 56.25 322.0059536530234 C 55.5625 322.0026791438605 54.71875 321.4375 54.375 320.75 C 53.901006369184 319.80201273836803 53.544106652194074 319.8624152860416 52.89782837919968 321 C 52.429133987759506 321.825 52.306691292773884 323.4 52.625733501453865 324.5 C 52.94477571013384 325.6 52.643161502195746 328.525 51.95547970603588 331 C 51.267797909876016 333.475 50.31399060486164 335.95 49.83590791711504 336.5 C 49.35782522936843 337.05 48.97416666666667 339.8625 48.983333333333334 342.75 C 48.9925 345.6375 49.3375 348.173437952336 49.75 348.3854176718577 C 50.1625 348.59739739137945 50.85145876911932 350.95989739137946 51.28101948693181 353.6354176718577 C 51.7105802047443 356.31093795233596 51.74660690325663 359.4 51.361078816959186 360.5 C 50.801409992094335 362.0968634432418 50.36382706860594 361.4921586081044 49.19018701291572 357.5 C 48.37758136906885 354.73590669869424 47.41328538858614 345.56868923404795 47.03380011840473 337 C 46.65624973235015 328.475 46.269192275050386 321.3875 46.17367243551638 321.25 C 46.078152595982374 321.1125 45.6625 320.9858081596089 45.25 320.9684625769087 C 44.8375 320.9511169942085 43.710851365042224 322.4136169942085 42.7463363667605 324.2184625769087 C 41.78182136847878 326.0233081596089 40.31932136847878 331.8875 39.4963363667605 337.25 C 38.67335136504222 342.6125 38 350.375 38 354.5 C 38 358.625 38.71100059813786 364.5875 39.580001329195234 367.75 C 40.44900206025261 370.9125 41.875600580641766 375.525 42.75022026339336 378 C 44.07082349193036 381.73704486085455 44.14203241289142 383.3053415357646 43.170218934198125 387.25 C 42.47990279163007 390.0520412090197 42.271360516198186 394.3580553785551 42.66169903486137 397.75 C 43.02563350403513 400.9125 43.925633504035126 404.9625 44.66169903486137 406.75 L 46 410 L 62.25 409.75 L 78.5 409.5 L 78.30691601771574 392 C 78.18283867032089 380.7543567637178 78.40812968794513 375.92956726027836 78.93729144357815 378.5 C 79.39019411805884 380.7 80.26933987454221 384.975 80.89094868020786 388 C 81.51255748587351 391.025 82.01638854423543 395.4125 82.01057325434545 397.75 C 82.00475796445545 400.0875 81.55 402.225 81 402.5 C 80.45 402.775 80 404.35 80 406 C 80 408.2853133926173 80.53601495553701 409.1279449355045 82.25 409.53706729991654 C 83.4875 409.83245431487063 91.025 409.94495431487064 99 409.78706729991654 L 113.5 409.5 L 113.31253720215545 389.5 C 113.20943266334095 378.5 113.0707574231363 369.05 113.00437000170066 368.5 C 112.93798258026501 367.95 113.31035653611357 365.025 113.83186768136412 362 C 114.35337882661466 358.975 115.26642683470311 355.15 115.86086325489403 353.5 C 116.45529967508494 351.85 117.91243436906204 346 119.09894035262093 340.5 C 120.8780433782432 332.2530406281033 121.05846134577226 329.84260976446126 120.12811197954582 326.75 C 119.50765039079562 324.6875 118.55 323.225 118 323.5 C 117.45 323.775 117 324.675 117 325.5 C 117 326.325 116.55 327 116 327 C 115.45 327 115 327.45 115 328 C 115 328.55 113.69561643200181 330.6875 112.10136984889292 332.75 C 110.507123265784 334.8125 108.87093176181966 337.625 108.46538872897214 339 C 108.05984569612463 340.375 105.75022925231426 345.55 103.33290774272689 350.5 C 100.9155862331395 355.45 98.95177773710385 360.5125 98.96888886264765 361.75 C 98.98599998819144 362.9875 98.55 364.225 98 364.5 C 97.45 364.775 97 365.9 97 367 C 97 368.1 95.6254712061509 372.0375 93.94549156922423 375.75 C 92.26551193229756 379.4625 89.90301193229756 383.52407138824196 88.69549156922423 384.77571419609325 C 87.4879712061509 386.02735700394453 85.7125 387.0398570039445 84.75 387.02571419609325 C 83.7875 387.011571388242 83 386.775 83 386.5 C 83 386.225 84.18407025767662 383.6375 85.63126723928137 380.75 C 87.07846422088612 377.8625 89.23968720281032 374.15 90.43398497689068 372.5 C 91.62828275097105 370.85 93.52452349803374 367.925 94.64785330369665 366 C 95.77118310935957 364.075 97.0479950949928 360.925 97.48521327177049 359 C 97.92243144854818 357.075 98.62972914575673 354.825 99.05698593223391 354 C 99.48424271871112 353.175 100.58058426083927 349.8 101.49330047029648 346.5 C 102.40601667975369 343.2 103.55816167728855 339.6 104.05362268704062 338.5 C 104.54908369679266 337.4 105.61574175161768 334.475 106.42397391998506 332 C 107.23220608835246 329.525 108.85019375955626 322.55 110.01950207821574 316.5 C 111.1888103968752 310.45 112.5827285641407 304.375 113.1170980054724 303 C 113.75990636021945 301.3459729928146 113.73528563546522 299.56942970790396 113.04433940394682 297.75 C 112.46995273177608 296.2375 111.4375 295.0095564747171 110.75 295.02123661048245 C 110.0625 295.03291674624785 108.7125 293.45791674624786 107.75 291.52123661048245 C 106.7875 289.5845564747171 105.9875 286.7625 105.97222222222223 285.25 C 105.95694444444445 283.7375 106.29444444444444 282.17482652264175 106.72222222222223 281.7773922725372 C 107.15 281.3799580224327 108.2875 281.4924580224327 109.25 282.0273922725372 C 110.23008303711987 282.5720987499418 111.23555278799532 284.64982206331456 111.53540498373977 286.75 C 111.82987772479665 288.8125 112.69773866684746 291.4 113.4639848549638 292.5 L 114.85715974244806 294.5 L 115.57791995271172 292.5 C 115.97493633840818 291.3983398915675 115.78243114088649 289.71395259487844 115.1493400814877 288.75 C 114.51720303666946 287.7875 114 285.875 114 284.5 C 114 283.125 113.325 280.65 112.5 279 C 111.675 277.35 110.6625 276.0448560114078 110.25 276.0996800253506 Z " class="odd" fill="#143823"></path><path d="M 194 300 C 193.45 300 193.00689074853267 300.3375 193.01531277451704 300.75 C 193.02373480050144 301.1625 193.46684405196876 302.175 194 303 C 194.7838742160732 304.212958855 194.97230471518623 304.06943828249996 194.98468722548296 302.25 C 194.99310925146733 301.0125 194.55 300 194 300 Z " class="odd" fill="#143823"></path><path d="M 227 302 C 228.11086202646842 302 228.85201796644577 302.55571123345726 228.66713370037172 303.25 C 228.48405723557616 303.9375 227.58405723557615 304.6125 226.66713370037172 304.75 C 225.74079263337464 304.8889122340324 225 304.33347340419414 225 303.5 C 225 302.6666666666667 225.88888888888889 302 227 302 Z " class="even" fill="#ffffff"></path><path d="M 222.76493159432792 308 C 222.97933826506662 308.825 222.89494047619047 309.725 222.57738095238096 310 C 222.25982142857143 310.275 221.775 310.1625 221.5 309.75 C 221.225 309.3375 221.30939778887614 308.4375 221.68755064194698 307.75 C 222.20363805044568 306.8117283713145 222.4723182181024 306.87407404557734 222.76493159432792 308 Z " class="even" fill="#ffffff"></path><path d="M 50.54960317460318 314 C 50.21676587301587 313.725 49.992470760233914 314.4 50.05116959064327 315.5 C 50.12550503410998 316.8930258446912 50.30916288864291 317.04476938351837 50.656328320802004 316 C 50.93046679197995 315.175 50.882440476190474 314.275 50.54960317460318 314 Z " class="odd" fill="#143823"></path><path d="M 175.25 316.25 C 179.13888888888889 316.43518518518516 180.5 316.8888888888889 180.5 318 C 180.5 319.01646873186877 179.04940619560637 319.705931473443 176 320.13883605988565 C 173.18367728437207 320.5386512836675 170.99052705869389 320.3515760298484 170.13832086044175 319.63883605988565 C 169.38939733368474 319.01247622694854 169.05189733368474 317.9375 169.38832086044175 317.25 C 169.78722552347008 316.4348163578939 171.82622870315453 316.0869632715788 175.25 316.25 Z " class="even" fill="#ffffff"></path><path d="M 169.5 323.30423869946236 C 170.05 323.5062176697391 170.8375 325.54539172292783 171.25 327.8357365954373 C 171.8296356706171 331.05407741027733 171.60248323143995 332.59178589555256 170.25 334.6052368079173 L 168.5 337.21047361583464 L 167.233016763661 335.3552368079173 C 166.53617598367458 334.33485656356277 165.97367598367458 332.2625 165.983016763661 330.75 C 165.99235754364744 329.2375 166.5625 326.86082594681125 167.25 325.46850210402505 C 167.9375 324.07617826123885 168.95 323.1022597291856 169.5 323.30423869946236 Z " class="even" fill="#ffffff"></path><path d="M 179.5 326.9276968711523 C 180.05 326.91848570584165 181.0625 327.60598570584165 181.75 328.45547464893014 C 182.63484329191925 329.54880496580483 182.7078746335354 330.5842507329292 182 332 C 181.45 333.1 180.775 334 180.5 334 C 180.225 334 179.325 333.775 178.5 333.5 C 177.675 333.225 176.9875 331.9875 176.97222222222223 330.75 C 176.95694444444445 329.5125 177.29444444444445 328.15 177.72222222222223 327.72222222222223 C 178.15 327.2944444444445 178.95 326.936908036463 179.5 326.9276968711523 Z " class="even" fill="#ffffff"></path><path d="M 376.75 338.87341528604736 L 374 337 L 374.14094419797254 370.25 C 374.25759759762326 397.7695828858575 374.43284471608666 401.604222909607 375.1577928100093 392.5 C 375.63954023774465 386.45 376.13861534865697 381.37751609460236 376.26684861203677 381.22781354356084 C 376.39508187541657 381.07811099251927 378.1858725560088 383.32811099251927 380.2463834577973 386.22781354356084 C 382.30689435958584 389.12751609460236 384.42834133035745 393.075 384.96071005951205 395 C 385.6893862605731 397.63483110525704 385.4333257551832 400.9719111278371 383.9248293496179 408.5 C 382.8227262300216 414 382.05127925924995 418.87589208058824 382.2105027479032 419.3353157346405 C 382.36972623655646 419.79473938869273 383.2875 416.98223938869273 384.25 413.0853157346405 C 385.2151461842961 409.1776783370282 386.44848789468796 406.22424394734395 387 406.5 C 387.55 406.775 389.39995870394193 410.0375 391.1110193420932 413.75 C 392.8220799802444 417.4625 394.39707998024437 419.9375 394.6110193420932 419.25 C 394.82495870394195 418.5625 393.1893996050887 414.0625 390.9764435668637 409.25 C 387.6218918358008 401.95487984086253 386.9568039085494 399.4608001136696 386.9764435668637 394.25 C 386.99537082462064 389.2282142187513 386.4850090995771 387.16481433124915 384.3793715473221 383.75 C 382.93802589834917 381.4125 380.67553183616695 378.375 379.3516069646949 377 L 376.9444708347457 374.5 L 379.00107606191295 367 C 380.1322089368549 362.875 381.38220299903713 356.0721887290133 381.7788406445401 351.88264162002963 C 382.35578141136256 345.7886146180515 382.20002762729445 343.91347037503874 381 342.506056906077 C 380.175 341.5384824223867 378.2625 339.9037936933734 376.75 338.87341528604736 Z " class="odd" fill="#143823"></path><path d="M 67.7057330069091 351.5 L 68.13910190615168 353.5 L 67.7057330069091 356 C 67.46738011232569 357.375 67.27236410766653 356.475 67.27236410766653 354 C 67.27236410766653 351.525 67.46738011232569 350.4 67.7057330069091 351.5 Z " class="even" fill="#ffffff"></path><path d="M 176.5 351 L 181 351 L 181 353.5 C 181 354.875 180.325 356.225 179.5 356.5 C 178.675 356.775 177.1 357 176 357 C 174.9 357 173.13079975145982 356.4375 172.0684438921329 355.75 C 170.62641137022217 354.8167935324028 170.37297654429992 354.0564890546361 171.0684438921329 352.75 C 171.74416759521293 351.4806009048692 173.2358308982351 351 176.5 351 Z " class="even" fill="#ffffff"></path><path d="M 170.5 360.9490740740741 C 171.05 360.9516203703704 171.8375 362.31412037037035 172.25 363.97685185185185 C 172.6625 365.63958333333335 172.775 367.45 172.5 368 C 172.225 368.55 171.1 369 170 369 C 168.41595441595442 369 167.99422285533396 368.3240740740741 167.97222222222223 365.75 C 167.95694444444445 363.9625 168.29444444444445 362.15 168.72222222222223 361.72222222222223 C 169.15 361.2944444444445 169.95 360.94652777777776 170.5 360.9490740740741 Z " class="even" fill="#ffffff"></path><path d="M 181.55783436704465 363.5 C 182.31604175611258 364.6 182.95070477360076 366.2875 182.96819662812953 367.25 C 182.9856884826583 368.2125 182.6625 369.0200364079815 182.25 369.04452535106986 C 181.8375 369.0690142941583 180.96011267701843 368.5065142941583 180.30025039337428 367.79452535106986 C 179.64038810973014 367.0825364079815 179.34322509224194 365.375 179.6398881322894 364 L 180.17927547783023 361.5 L 181.55783436704465 363.5 Z " class="even" fill="#ffffff"></path><path d="M 226.5 368 C 227.325 368 228.27958266883243 369.0125 228.62129481962765 370.25 L 229.2425896392553 372.5 L 228.62129481962765 374.25 C 228.27958266883243 375.2125 227.2125 375.88290294909274 226.25 375.73978433131714 C 225.22868782983772 375.5879206574356 224.37115733671934 374.4428397819763 224.19057441127927 372.98978433131714 C 224.02039033748284 371.6204029490927 224.13289033748285 369.9375 224.44057441127927 369.25 C 224.74825848507567 368.5625 225.675 368 226.5 368 Z " class="even" fill="#ffffff"></path><path d="M 33.66228070175438 374.5 C 33.38486842105263 373.95 33.1578947368421 374.625 33.1578947368421 376 C 33.1578947368421 377.375 33.38486842105263 377.825 33.66228070175438 377 L 34.166666666666664 375.5 L 33.66228070175438 374.5 Z " class="odd" fill="#143823"></path><path d="M 175 387.96666666666664 C 175.275 387.96666666666664 176.07 388.53666666666663 176.76666666666665 389.23333333333335 C 177.46333333333334 389.93 178.02583333333334 390.8375 178.01666666666665 391.25 C 178.0075 391.6625 176.65 392 175 392 C 173.35 392 171.9925 391.6625 171.98333333333335 391.25 C 171.97416666666666 390.8375 172.53666666666666 389.93 173.23333333333335 389.23333333333335 C 173.93 388.53666666666663 174.725 387.96666666666664 175 387.96666666666664 Z " class="even" fill="#ffffff"></path><path d="M 217.66713370037172 395.25 C 218.58405723557615 395.3875 219.48405723557616 396.0625 219.66713370037172 396.75 C 219.85201796644577 397.44428876654274 219.11086202646842 398 218 398 C 216.88888888888889 398 216 397.3333333333333 216 396.5 C 216 395.66652659580586 216.74079263337464 395.1110877659676 217.66713370037172 395.25 Z " class="even" fill="#ffffff"></path><path d="M 169.96444703836767 400.5 C 171.59346120962428 402.10522750124363 171.74793464925682 402.7555215037726 170.7470417739138 403.79452535106986 C 170.0611687982612 404.5065142941583 169.1625 405.0690142941583 168.75 405.04452535106986 C 168.3375 405.0200364079815 167.98533236900425 403.5375 167.96740526445387 401.75 L 167.93481052890778 398.5 L 169.96444703836767 400.5 Z " class="even" fill="#ffffff"></path><path d="M 181.21168319336837 401.5 C 181.76168319336838 402.05 181.89142575635262 403.175 181.5 404 C 181.02554453775443 405 180.4549834732983 405.1666666666667 179.78831680663166 404.5 C 179.23831680663164 403.95 179.10857424364738 402.825 179.5 402 C 179.97445546224557 401 180.54501652670172 400.8333333333333 181.21168319336837 401.5 Z " class="even" fill="#ffffff"></path><path d="M 204 404 L 198 404 L 198 407 L 198 410 L 204 410 L 210 410 L 210 407 L 210 404 L 204 404 Z " class="odd" fill="#143823"></path><path d="M 368.5 404 C 367.5 404 367 405 367 407 C 367 409 367.5 410 368.5 410 C 369.5 410 370 409 370 407 C 370 405 369.5 404 368.5 404 Z " class="odd" fill="#143823"></path><path d="M 36 407 C 35.45 407 35 407.45 35 408 C 35 408.55 35.45 409 36 409 C 36.55 409 37 408.55 37 408 C 37 407.45 36.55 407 36 407 Z " class="odd" fill="#143823"></path><path d="M 123.5 411 L 50 411 L 49.75 415.49943405521935 L 49.5 419.9988681104387 L 170.25 419.99943405521935 L 291 420 L 288.25 415.5316084926732 L 285.5 411.0632169853463 L 248.25 411.0316084926732 L 211 411 L 211 414 L 211 417 L 204 417 L 197 417 L 197 414 L 197 411 L 123.5 411 Z " class="odd" fill="#143823"></path><path d="M 204 411 L 198 411 L 198 413.5 L 198 416 L 204 416 L 210 416 L 210 413.5 L 210 411 L 204 411 Z " class="odd" fill="#143823"></path><path d="M 350.75 410.97670452177783 C 350.3375 410.98951703480003 350.675 413.025 351.5 415.5 C 352.325 417.975 353.24528401650963 419.8875 353.5450755922436 419.75 C 353.84486716797755 419.6125 353.5073671679776 417.57701703480006 352.7950755922436 415.22670452177783 C 352.0827840165096 412.87639200875566 351.1625 410.9638920087557 350.75 410.97670452177783 Z " class="odd" fill="#143823"></path></g></svg>